<?xml version="1.0" standalone="no"?>
<!DOCTYPE svg PUBLIC "-//W3C//DTD SVG 20010904//EN"
 "http://www.w3.org/TR/2001/REC-SVG-20010904/DTD/svg10.dtd">
<svg version="1.0" xmlns="http://www.w3.org/2000/svg"
 width="256.000000pt" height="256.000000pt" viewBox="0 0 256.000000 256.000000"
 preserveAspectRatio="xMidYMid meet">

<g transform="translate(0.000000,256.000000) scale(0.100000,-0.100000)"
fill="#000000" stroke="none">
<path d="M705 2404 c-203 -44 -391 -188 -489 -373 -109 -207 -109 -465 0 -671
132 -251 401 -403 684 -387 112 6 228 40 313 91 l57 35 0 -28 c0 -40 40 -75
80 -69 30 5 32 3 91 -112 157 -309 401 -581 619 -691 55 -28 76 -33 137 -34
68 0 73 2 107 34 46 45 60 88 54 171 -14 184 -187 402 -478 599 -111 76 -279
173 -320 186 -17 5 -20 12 -14 40 5 28 1 38 -21 60 -18 18 -34 26 -49 23 -22
-4 -21 0 21 77 58 110 83 212 83 340 0 206 -66 363 -214 510 -99 98 -176 146
-301 185 -93 29 -262 36 -360 14z m346 -25 c121 -34 203 -83 305 -184 79 -78
98 -103 137 -185 105 -217 101 -437 -11 -655 -54 -106 -190 -238 -302 -292
-118 -58 -194 -76 -320 -76 -162 -1 -290 41 -427 139 -122 87 -229 250 -267
405 -21 85 -21 243 0 328 95 393 496 628 885 520z m467 -1131 c40 -40 -31
-150 -143 -224 -51 -33 -107 13 -86 69 6 15 43 59 83 97 57 54 80 70 104 70
16 0 35 -5 42 -12z m220 -205 c213 -123 414 -297 505 -437 98 -149 120 -233
80 -311 -34 -67 -56 -80 -127 -79 -131 3 -251 77 -449 278 -130 132 -198 222
-277 369 -41 76 -42 78 -30 126 11 47 37 82 70 94 8 3 44 6 80 6 61 1 72 -3
148 -46z"/>
<path d="M772 2319 c-229 -34 -415 -190 -500 -417 -33 -90 -41 -246 -18 -347
27 -115 78 -208 159 -290 40 -39 83 -77 97 -84 20 -10 19 -8 -5 10 -65 48
-149 146 -177 205 -137 292 -15 676 261 823 125 66 310 95 436 68 39 -8 79
-18 90 -22 13 -4 11 -1 -5 9 -67 38 -233 61 -338 45z"/>
<path d="M1180 2238 c3 -3 37 -29 75 -57 56 -42 62 -45 29 -14 -33 30 -124 92
-104 71z"/>
<path d="M608 2084 c-25 -8 -31 -34 -8 -34 15 0 10 -9 -25 -46 l-45 -46 0
-341 c0 -198 4 -348 10 -357 12 -20 228 -26 332 -10 115 17 233 94 269 174 22
49 24 134 4 181 -18 44 -70 92 -107 101 l-29 6 39 34 c52 44 65 79 60 157 -5
81 -32 121 -107 155 -52 24 -68 26 -216 28 -88 2 -167 1 -177 -2z m230 -165
c39 -13 62 -48 62 -93 0 -62 -5 -66 -86 -66 l-74 0 0 85 0 85 34 0 c18 0 47
-5 64 -11z m42 -341 c37 -19 47 -31 58 -65 11 -35 11 -47 0 -70 -13 -27 -15
-28 -106 -31 l-92 -3 0 96 0 95 48 0 c30 0 65 -9 92 -22z"/>
<path d="M1303 2070 c-3 -11 -16 -23 -29 -26 l-24 -6 0 -309 c0 -170 2 -309 4
-309 11 0 58 96 82 166 41 121 44 329 7 482 -6 27 -33 29 -40 2z"/>
<path d="M1446 1485 c-9 -26 -7 -32 5 -12 6 10 9 21 6 23 -2 3 -7 -2 -11 -11z"/>
<path d="M1359 1323 c-13 -16 -12 -17 4 -4 9 7 17 15 17 17 0 8 -8 3 -21 -13z"/>
<path d="M1309 1263 l-24 -28 28 24 c25 23 32 31 24 31 -2 0 -14 -12 -28 -27z"/>
<path d="M1627 1897 l-28 -22 3 -255 3 -255 37 -3 c22 -2 47 3 62 13 25 17 26
19 28 168 l3 151 83 -157 c46 -86 92 -162 102 -167 29 -15 85 -12 119 8 l31
17 0 263 0 262 -43 0 c-70 0 -76 -12 -79 -178 l-3 -141 -75 141 c-41 78 -83
150 -92 160 -27 27 -115 25 -151 -5z"/>
</g>
</svg>
