<?xml version="1.0" standalone="no"?>
<!DOCTYPE svg PUBLIC "-//W3C//DTD SVG 20010904//EN"
 "http://www.w3.org/TR/2001/REC-SVG-20010904/DTD/svg10.dtd">
<svg version="1.0" xmlns="http://www.w3.org/2000/svg"
 width="214.000000pt" height="167.000000pt" viewBox="0 0 214.000000 167.000000"
 preserveAspectRatio="xMidYMid meet">

<g transform="translate(0.000000,167.000000) scale(0.100000,-0.100000)"
fill="#000000" stroke="none">
<path d="M175 1654 c-55 -19 -109 -66 -143 -122 l-27 -47 0 -650 0 -650 32
-51 c33 -51 62 -76 123 -110 34 -18 71 -19 888 -22 569 -2 866 1 892 8 58 16
131 71 165 125 l30 48 0 651 0 651 -27 47 c-35 58 -88 103 -147 123 -65 22
-1724 21 -1786 -1z m430 -53 c18 -55 61 -89 139 -112 168 -48 197 -70 198
-156 0 -69 -31 -126 -89 -164 l-47 -29 -388 0 -388 0 0 124 c0 201 24 273 113
332 50 33 97 39 296 38 l155 0 11 -33z m1359 14 c50 -24 97 -71 121 -121 15
-32 20 -69 23 -196 l4 -158 -369 0 c-366 0 -370 0 -413 23 -57 30 -85 82 -85
159 0 42 6 64 21 85 26 35 101 62 177 63 52 0 57 2 57 21 0 21 -3 22 -75 16
-153 -13 -217 -67 -218 -186 -1 -99 57 -187 136 -206 15 -4 27 -14 28 -24 0
-9 1 -119 1 -244 l1 -229 -50 -28 c-74 -43 -123 -122 -123 -201 0 -48 7 -63
104 -208 42 -62 76 -119 76 -127 0 -12 -52 -14 -305 -14 l-305 0 29 58 c16 31
54 95 85 142 72 108 94 174 78 228 -14 47 -85 130 -118 138 l-24 6 0 249 0
248 35 17 c105 49 160 209 102 295 -30 45 -86 75 -175 95 -44 10 -85 26 -102
41 -29 24 -45 56 -37 70 3 5 292 8 644 7 599 -1 640 -2 677 -19z m-1184 -755
l0 -240 -373 2 -372 3 -3 238 -2 237 375 0 375 0 0 -240z m1328 3 l-3 -238
-347 -3 -348 -2 0 240 0 240 350 0 350 0 -2 -237z m-1273 -296 c50 -25 95 -92
95 -139 0 -33 -40 -115 -100 -203 -29 -43 -63 -102 -77 -131 l-24 -54 -252 0
c-232 0 -256 2 -297 21 -56 25 -95 62 -123 114 -18 35 -21 61 -25 212 -2 95
-2 178 1 185 3 10 87 13 389 12 324 -1 388 -4 413 -17z m1270 -158 c0 -121 -4
-186 -14 -212 -19 -55 -68 -106 -126 -133 -48 -23 -60 -24 -292 -24 l-243 0
-21 42 c-11 24 -55 93 -96 155 -62 91 -76 119 -76 150 0 77 77 176 145 187 57
10 106 11 418 10 l305 -1 0 -174z"/>
</g>
</svg>
